<?xml version="1.0" encoding="UTF-8"?>
<svg version="1.1" xmlns="http://www.w3.org/2000/svg" width="500" height="500">
<path d="M0 0 C3.59 3.59 6.23 7.35 8.75 11.75 C9.38 12.84 9.38 12.84 10.02 13.96 C14.2 22.61 14.17 32.98 11.9 42.2 C9.24 49.26 5.1 54.49 -0.25 59.75 C2.39 60.08 5.03 60.41 7.75 60.75 C7.75 82.53 7.75 104.31 7.75 126.75 C-24.92 126.75 -57.59 126.75 -91.25 126.75 C-91.91 130.71 -92.57 134.67 -93.25 138.75 C-94.28 139 -95.3 139.26 -96.36 139.52 C-99.97 140.41 -103.57 141.32 -107.18 142.23 C-108.99 142.68 -110.8 143.12 -112.62 143.54 C-113.57 143.78 -114.52 144.01 -115.5 144.25 C-116.33 144.45 -117.16 144.64 -118.02 144.84 C-120.39 145.62 -120.39 145.62 -122.05 147.73 C-125.09 150.52 -128.3 150.89 -132.25 151.5 C-132.96 151.63 -133.67 151.75 -134.41 151.88 C-137.75 152.45 -140.85 152.75 -144.25 152.75 C-144.75 147.8 -144.75 147.8 -145.25 142.75 C-126.2 138.2 -126.2 138.2 -123.47 139.79 C-120.32 141.15 -118.12 140.56 -114.75 140 C-112.91 139.7 -112.91 139.7 -111.02 139.4 C-109.78 139.18 -108.53 138.97 -107.25 138.75 C-106.07 138.56 -104.88 138.36 -103.66 138.16 C-100.86 137.7 -98.05 137.23 -95.25 136.75 C-94.92 133.45 -94.59 130.15 -94.25 126.75 C-97.55 126.75 -100.85 126.75 -104.25 126.75 C-104.25 113.55 -104.25 100.35 -104.25 86.75 C-106.89 86.75 -109.53 86.75 -112.25 86.75 C-112.75 88.24 -112.75 88.24 -113.25 89.75 C-115.13 89.47 -115.13 89.47 -117.25 88.75 C-118.35 87.17 -118.35 87.17 -119.17 85.15 C-119.47 84.43 -119.78 83.72 -120.09 82.97 C-120.39 82.22 -120.69 81.47 -121 80.69 C-121.32 79.93 -121.63 79.17 -121.96 78.39 C-122.73 76.51 -123.49 74.63 -124.25 72.75 C-117.55 73.62 -117.55 73.62 -114.81 74.75 C-111.31 76.12 -107.99 76.37 -104.25 76.75 C-104.25 75.1 -104.25 73.45 -104.25 71.75 C-105.05 71.71 -105.86 71.67 -106.69 71.62 C-114.51 69.7 -120.17 64.6 -124.81 58.17 C-129.31 50.61 -130.62 41.91 -128.71 33.33 C-126.11 24.81 -120.83 16.98 -113.01 12.45 C-104.48 8.49 -95.92 7.38 -86.88 10.19 C-80.56 12.64 -75.74 16.73 -71.25 21.75 C-70.75 23.23 -70.75 23.23 -70.25 24.75 C-67.3 24.58 -67.3 24.58 -64.25 22.75 C-63.01 20.1 -62.18 17.42 -61.3 14.63 C-58.15 5.95 -50.43 -1.1 -42.5 -5.56 C-27.74 -12.21 -12.86 -8.9 0 0 Z M-42.25 15.75 C-46.51 21.62 -47.28 27.65 -46.25 34.75 C-44.41 40.44 -40.08 44.41 -35.25 47.75 C-29.31 49.73 -22.41 49.98 -16.54 47.69 C-11.3 44.48 -7.78 40.77 -6.25 34.75 C-5.27 27.75 -5.56 22.15 -9.83 16.37 C-14.55 10.99 -19.1 9 -26.19 8.44 C-32.47 8.62 -37.85 11.35 -42.25 15.75 Z M-110.69 29.31 C-113.82 34.19 -113.88 39.11 -113.25 44.75 C-111.04 49.17 -108.3 51.94 -104.25 54.75 C-99.46 56.35 -94.74 56.79 -89.99 54.81 C-85.97 52.44 -83.01 50.2 -81.25 45.75 C-80.08 40.16 -79.82 36.09 -82.25 30.75 C-85.83 26.28 -89.51 23.44 -95.25 22.56 C-101.76 22.35 -106.26 24.66 -110.69 29.31 Z M-67.25 50.75 C-69.24 53.79 -71.25 57.05 -71.25 60.75 C-64.32 60.75 -57.39 60.75 -50.25 60.75 C-52.23 58.11 -54.21 55.47 -56.25 52.75 C-57.24 51.43 -58.23 50.11 -59.25 48.75 C-62.7 48.75 -64.26 49 -67.25 50.75 Z M-5.25 113.75 C-5.91 114.41 -6.57 115.07 -7.25 115.75 C-6.93 118.35 -6.93 118.35 -6.25 120.75 C-4.4 121.44 -4.4 121.44 -2.25 121.75 C-1.26 121.09 -0.27 120.43 0.75 119.75 C0.42 118.1 0.09 116.45 -0.25 114.75 C-2.65 114.07 -2.65 114.07 -5.25 113.75 Z " fill="#FFDF2B" transform="translate(405.25,59.25)"/>
<path d="M0 0 C0.76 0.21 1.53 0.41 2.31 0.62 C1.79 4.84 0.54 6.91 -2.25 10.06 C-39.02 54.61 -51.68 122.61 -50.69 178.62 C-47.06 178.29 -43.43 177.97 -39.69 177.62 C-39.19 180.1 -39.19 180.1 -38.69 182.62 C-41.64 185.58 -44.64 185.71 -48.69 186.62 C-47.7 193.69 -46.34 199.46 -42.69 205.62 C-39.8 207.07 -37.89 207 -34.69 206.62 C-32.06 204.67 -32.06 204.67 -29.69 201.62 C-29.17 201.01 -28.66 200.4 -28.13 199.76 C-23.39 193.92 -19.84 187.82 -16.44 181.12 C-15.85 179.99 -15.27 178.85 -14.67 177.68 C-4.52 157.74 4.66 137.29 13.79 116.86 C17.88 107.71 22.13 98.66 26.62 89.69 C27.22 88.47 27.82 87.26 28.42 86.04 C29 84.88 29.58 83.73 30.18 82.54 C30.68 81.52 31.19 80.5 31.72 79.45 C35.87 72.11 35.87 72.11 40.31 70.62 C42.44 71.19 42.44 71.19 44.31 72.62 C45.83 77.94 44.81 82.25 43.58 87.48 C43.3 88.76 43.3 88.76 43 90.07 C42.6 91.9 42.18 93.72 41.77 95.54 C40.69 100.3 39.65 105.07 38.61 109.83 C38.41 110.77 38.21 111.71 38 112.68 C29.02 151.72 29.02 151.72 37.93 189.63 C40.57 193.43 43.37 195.81 47.69 197.62 C53.89 197.62 58.17 195.12 62.62 191.06 C95.39 155.99 103.9 96.17 107.62 50.44 C107.71 49.37 107.8 48.3 107.89 47.2 C108.22 42.69 108.41 38.49 107.73 34.01 C107.59 32.89 107.45 31.78 107.31 30.62 C107.97 29.97 108.63 29.31 109.31 28.62 C111.25 28.69 111.25 28.69 113.31 29.62 C116.85 33.98 116.62 38.04 116.25 43.38 C116.2 44.27 116.14 45.17 116.08 46.1 C113.8 79.41 108.12 111.98 97.31 143.62 C96.94 144.72 96.94 144.72 96.56 145.83 C89.41 166.42 77.61 192.26 58.22 203.88 C53.28 206.06 48.46 206.22 43.31 204.62 C34.43 200.06 29.44 191.35 26.13 182.24 C19.23 160.12 24.82 133.6 29.9 111.55 C30.43 109.07 30.72 106.6 30.94 104.06 C31.01 103.22 31.09 102.37 31.16 101.5 C31.24 100.57 31.24 100.57 31.31 99.62 C30.65 99.62 29.99 99.62 29.31 99.62 C28.96 100.81 28.6 102 28.23 103.22 C26.17 109.4 23.34 115.22 20.53 121.09 C18.85 124.62 17.17 128.16 15.5 131.7 C15.16 132.43 14.81 133.16 14.46 133.92 C11.03 141.18 7.74 148.5 4.45 155.82 C-19.66 209.4 -19.66 209.4 -34.78 215.46 C-38.47 216.21 -40.9 215.54 -44.38 214.19 C-52.76 208.52 -54.89 197.77 -57.69 188.62 C-58.47 188.79 -59.25 188.95 -60.06 189.11 C-63.77 189.87 -67.48 190.62 -71.19 191.38 C-71.86 191.51 -72.54 191.65 -73.24 191.79 C-82.34 193.63 -91.44 195.27 -100.62 196.69 C-112.05 198.5 -122.21 201.43 -132.69 206.44 C-137 208.49 -139.94 209.24 -144.69 208.62 C-145.69 207.62 -145.69 207.62 -145.92 204.58 C-145.66 200.14 -144.49 196.49 -142.94 192.38 C-142.29 190.59 -141.64 188.8 -141 187.01 C-140.63 186 -140.27 185 -139.89 183.97 C-137.53 177.42 -135.26 170.83 -133 164.25 C-132.74 163.51 -132.49 162.77 -132.23 162 C-128.47 151.1 -124.92 140.14 -121.49 129.13 C-88.52 23.33 -88.52 23.33 -70.69 6.62 C-69.7 6.96 -68.71 7.28 -67.69 7.62 C-68.25 12.48 -69.78 16.4 -71.93 20.73 C-72.61 22.15 -73.29 23.56 -73.97 24.97 C-75.03 27.14 -76.09 29.3 -77.15 31.47 C-89.33 56.36 -97.93 82.66 -106.73 108.89 C-107.83 112.17 -108.94 115.46 -110.05 118.74 C-117.26 140.06 -124.18 161.45 -130.89 182.93 C-132.43 187.85 -134.03 192.75 -135.69 197.62 C-134.7 197.28 -134.7 197.28 -133.69 196.93 C-123.46 193.55 -113.02 191.49 -102.47 189.38 C-98.95 188.68 -95.43 187.96 -91.91 187.24 C-88.73 186.59 -85.55 185.94 -82.37 185.29 C-80.8 184.97 -79.22 184.65 -77.65 184.33 C-75.43 183.88 -73.21 183.43 -70.99 182.98 C-69.06 182.59 -69.06 182.59 -67.09 182.19 C-64.19 181.71 -61.61 181.5 -58.69 181.62 C-58.76 180.99 -58.83 180.36 -58.91 179.71 C-62.2 147.92 -56.06 115.9 -46.69 85.62 C-46.43 84.78 -46.17 83.93 -45.9 83.06 C-41.14 67.99 -18.8 -2.62 0 0 Z " fill="#FFDF2B" transform="translate(189.6875,188.375)"/>
<path d="M0 0 C1.32 0 2.64 0 4 0 C3.27 8.45 1.55 16.68 -0.16 24.97 C-0.47 26.51 -0.79 28.04 -1.1 29.58 C-1.91 33.59 -2.74 37.59 -3.56 41.6 C-4.4 45.71 -5.24 49.81 -6.07 53.91 C-7.71 61.94 -9.35 69.97 -11 78 C-9.68 78 -8.36 78 -7 78 C-6.8 77.1 -6.6 76.2 -6.4 75.27 C-4.29 65.95 -1.88 56.73 0.67 47.52 C1 46.33 1.33 45.14 1.67 43.91 C3.04 38.94 4.42 33.98 5.81 29.02 C6.83 25.35 7.85 21.69 8.86 18.02 C9.17 16.9 9.49 15.78 9.82 14.63 C10.25 13.06 10.25 13.06 10.69 11.46 C10.94 10.55 11.2 9.64 11.46 8.7 C12.05 5.74 12.09 3.01 12 0 C13.98 0 15.96 0 18 0 C18.53 8.09 19.05 16.17 19.56 24.26 C19.8 28.01 20.05 31.77 20.29 35.52 C20.53 39.16 20.76 42.8 20.99 46.44 C21.08 47.81 21.17 49.19 21.26 50.56 C21.89 60.06 22.11 69.48 22 79 C25.63 79 29.26 79 33 79 C32.99 78.15 32.99 77.3 32.98 76.42 C32.94 67.99 33.17 59.61 33.62 51.19 C33.72 49.31 33.72 49.31 33.82 47.4 C33.95 44.78 34.09 42.17 34.23 39.55 C34.37 36.88 34.51 34.21 34.64 31.54 C34.84 27.65 35.04 23.77 35.25 19.88 C35.31 18.69 35.37 17.5 35.43 16.28 C35.72 10.8 36.09 5.41 37 0 C38.98 0 40.96 0 43 0 C49.93 25.41 56.86 50.82 64 77 C65.98 77.5 65.98 77.5 68 78 C67.81 77.1 67.62 76.19 67.43 75.26 C65.66 66.74 63.89 58.23 62.13 49.71 C61.23 45.32 60.32 40.95 59.41 36.57 C58.53 32.34 57.65 28.11 56.78 23.88 C56.45 22.27 56.11 20.66 55.78 19.05 C55.31 16.79 54.84 14.53 54.38 12.27 C54.11 10.98 53.84 9.7 53.57 8.37 C53.08 5.49 52.88 2.91 53 0 C54.32 0 55.64 0 57 0 C58.49 7.18 59.99 14.36 61.48 21.55 C61.99 23.98 62.49 26.41 63 28.85 C64.45 35.82 65.89 42.79 67.33 49.76 C67.77 51.87 68.2 53.98 68.64 56.09 C69.22 58.86 69.79 61.64 70.36 64.42 C70.53 65.23 70.7 66.03 70.87 66.86 C71.63 70.63 72.2 74.15 72 78 C73.65 78 75.3 78 77 78 C77 80.64 77 83.28 77 86 C76.01 86 75.02 86 74 86 C74.16 86.59 74.32 87.18 74.48 87.79 C77.39 98.98 79.59 110.31 81.89 121.63 C82.35 123.92 82.82 126.21 83.29 128.49 C84.26 133.26 85.23 138.03 86.2 142.8 C87.44 148.92 88.69 155.05 89.94 161.17 C90.9 165.88 91.86 170.59 92.82 175.3 C93.28 177.56 93.74 179.82 94.2 182.08 C94.84 185.22 95.48 188.37 96.12 191.51 C96.31 192.45 96.5 193.38 96.7 194.35 C96.87 195.2 97.05 196.05 97.22 196.93 C97.37 197.67 97.52 198.41 97.68 199.18 C98 201 98 201 98 203 C96.35 203 94.7 203 93 203 C88.95 188.19 84.91 173.38 80.87 158.56 C79 151.69 77.12 144.81 75.24 137.93 C73.43 131.3 71.62 124.67 69.82 118.03 C69.13 115.5 68.43 112.96 67.74 110.43 C66.77 106.89 65.81 103.35 64.85 99.81 C64.56 98.75 64.27 97.7 63.97 96.61 C63.71 95.64 63.45 94.68 63.18 93.69 C62.95 92.85 62.72 92.01 62.48 91.15 C62 89 62 89 62 86 C61.01 86 60.02 86 59 86 C58.95 84.95 58.95 84.95 58.91 83.87 C58.4 75.54 56.65 67.94 54.4 59.92 C54.04 58.62 53.69 57.31 53.33 56 C52.4 52.61 51.46 49.22 50.51 45.83 C49.55 42.35 48.59 38.87 47.64 35.39 C45.77 28.59 43.89 21.79 42 15 C40.27 43.34 38.67 71.69 37.21 100.05 C37.17 100.78 37.14 101.51 37.1 102.26 C36.56 112.7 36.02 123.15 35.49 133.59 C34.95 144.24 34.4 154.89 33.86 165.53 C33.64 169.77 33.42 174 33.21 178.23 C33.04 181.47 32.87 184.71 32.71 187.94 C32.65 189.08 32.59 190.21 32.54 191.38 C32.14 198.93 31.61 206.46 31 214 C29.35 214 27.7 214 26 214 C24.89 210.32 24.7 206.7 24.47 202.87 C24.4 201.8 24.4 201.8 24.33 200.7 C24.18 198.29 24.04 195.88 23.89 193.47 C23.79 191.75 23.68 190.02 23.57 188.29 C23.34 184.57 23.11 180.85 22.89 177.13 C22.53 171.24 22.17 165.36 21.8 159.47 C21.23 150.15 20.66 140.82 20.09 131.5 C19.07 114.83 18.04 98.16 17.01 81.49 C16.65 75.65 16.29 69.8 15.94 63.95 C15.71 60.3 15.49 56.65 15.27 53 C15.16 51.32 15.06 49.64 14.96 47.95 C14.82 45.64 14.67 43.33 14.53 41.02 C14.41 39.08 14.41 39.08 14.29 37.11 C13.93 32.07 13.46 27.03 13 22 C5.57 49.23 5.57 49.23 -2 77 C-1.67 77.33 -1.34 77.66 -1 78 C-0.86 80.67 -0.96 83.32 -1 86 C-2.32 86 -3.64 86 -5 86 C-5.22 86.99 -5.45 87.98 -5.68 89 C-8.35 100.6 -11.39 112.08 -14.54 123.56 C-15.06 125.48 -15.59 127.41 -16.11 129.33 C-17.2 133.33 -18.3 137.33 -19.39 141.33 C-20.79 146.43 -22.18 151.54 -23.57 156.64 C-24.65 160.6 -25.74 164.56 -26.82 168.52 C-27.33 170.4 -27.85 172.28 -28.36 174.17 C-33.26 192.11 -33.26 192.11 -36 201 C-37.32 200.67 -38.64 200.34 -40 200 C-39.36 193.38 -38.29 186.96 -36.94 180.45 C-36.74 179.43 -36.53 178.42 -36.32 177.37 C-35.87 175.19 -35.42 173 -34.97 170.82 C-34.27 167.37 -33.56 163.91 -32.86 160.46 C-30.86 150.64 -28.85 140.83 -26.84 131.01 C-25.61 125 -24.38 118.99 -23.16 112.97 C-22.69 110.68 -22.22 108.38 -21.75 106.09 C-21.1 102.9 -20.45 99.71 -19.8 96.52 C-19.6 95.56 -19.4 94.61 -19.2 93.62 C-19.02 92.76 -18.85 91.9 -18.67 91.01 C-18.44 89.88 -18.44 89.88 -18.2 88.72 C-18.14 88.15 -18.07 87.59 -18 87 C-18.5 86.5 -18.5 86.5 -19 86 C-19.14 83.33 -19.04 80.68 -19 78 C-17.51 77.5 -17.51 77.5 -16 77 C-15.81 76.08 -15.63 75.16 -15.44 74.21 C-13.69 65.54 -11.94 56.88 -10.18 48.21 C-9.28 43.75 -8.38 39.3 -7.48 34.84 C-6.62 30.54 -5.75 26.24 -4.88 21.95 C-4.55 20.3 -4.21 18.66 -3.88 17.02 C-3.42 14.73 -2.96 12.43 -2.49 10.13 C-2.35 9.45 -2.22 8.77 -2.08 8.07 C-1.51 5.31 -0.89 2.68 0 0 Z M-13 86 C-15.15 94.31 -17.05 102.65 -18.75 111.06 C-18.98 112.18 -19.22 113.29 -19.46 114.44 C-19.67 115.5 -19.89 116.56 -20.11 117.66 C-20.3 118.62 -20.5 119.57 -20.7 120.55 C-21.19 123.13 -21.19 123.13 -20 126 C-16.06 112.73 -12.19 99.47 -9 86 C-10.32 86 -11.64 86 -13 86 Z M23 86 C23.72 111.03 25.41 136.01 27 161 C27.66 161 28.32 161 29 161 C29.4 153.73 29.79 146.46 30.17 139.19 C30.35 135.82 30.53 132.44 30.72 129.06 C31.89 107.54 31.89 107.54 32 86 C29.03 86 26.06 86 23 86 Z M66 86 C69.24 100.45 73.09 114.72 77 129 C77.33 129 77.66 129 78 129 C77.45 121.07 76.01 113.37 74.42 105.59 C74 103.54 73.58 101.49 73.17 99.44 C71.86 92.65 71.86 92.65 70 86 C68.68 86 67.36 86 66 86 Z " fill="#FFDF2B" transform="translate(334,203)"/>
<path d="M0 0 C0 17.49 0 34.98 0 53 C-14 45 -14 45 -19 42 C-21.01 41.51 -21.01 41.51 -22.99 41.49 C-23.94 41.44 -23.94 41.44 -24.92 41.39 C-25.71 41.36 -26.5 41.34 -27.31 41.31 C-29.85 41.21 -32.39 41.11 -35 41 C-35 31.43 -35 21.86 -35 12 C-31.6 12.09 -31.6 12.09 -28.12 12.19 C-17.97 11.99 -10.59 6.67 -2.51 0.99 C-1 0 -1 0 0 0 Z " fill="#FFDF2B" transform="translate(450,116)"/>
<path d="M0 0 C20.79 0 41.58 0 63 0 C63 3.96 63 7.92 63 12 C42.21 12 21.42 12 0 12 C0 8.04 0 4.08 0 0 Z " fill="#FFDF2B" transform="translate(331,190)"/>
<path d="M0 0 C0.99 0.33 1.98 0.66 3 1 C2.67 2.65 2.34 4.3 2 6 C0.68 5.67 -0.64 5.34 -2 5 C-2 3.68 -2 2.36 -2 1 C-1.34 0.67 -0.68 0.34 0 0 Z " fill="#FFDF2B" transform="translate(369,83)"/>
<path d="M0 0 C1.65 0.33 3.3 0.66 5 1 C4.67 2.32 4.34 3.64 4 5 C2.68 5 1.36 5 0 5 C-0.33 4.01 -0.66 3.02 -1 2 C-0.67 1.34 -0.34 0.68 0 0 Z " fill="#FFDF2B" transform="translate(385,81)"/>
<path d="M0 0 C1.65 0.33 3.3 0.66 5 1 C4.67 2.32 4.34 3.64 4 5 C2.68 5 1.36 5 0 5 C-0.33 4.01 -0.66 3.02 -1 2 C-0.67 1.34 -0.34 0.68 0 0 Z " fill="#FFDF2B" transform="translate(375,75)"/>
<path d="M0 0 C1.32 0.66 2.64 1.32 4 2 C3.67 2.99 3.34 3.98 3 5 C2.01 5.33 1.02 5.66 0 6 C-0.66 4.68 -1.32 3.36 -2 2 C-1.34 1.34 -0.68 0.68 0 0 Z " fill="#FFDF2B" transform="translate(385,92)"/>
<path d="M0 0 C1.32 0.66 2.64 1.32 4 2 C3.67 2.99 3.34 3.98 3 5 C1.35 4.67 -0.3 4.34 -2 4 C-1.34 2.68 -0.68 1.36 0 0 Z " fill="#FFDF2B" transform="translate(373,94)"/>
<path d="M0 0 C1.98 0.5 1.98 0.5 4 1 C3.67 1.99 3.34 2.98 3 4 C1.68 3.67 0.36 3.34 -1 3 C-0.67 2.01 -0.34 1.02 0 0 Z " fill="#FFDF2B" transform="translate(299,95)"/>
<path d="M0 0 C0.66 0.33 1.32 0.66 2 1 C1.67 2.32 1.34 3.64 1 5 C0.01 4.67 -0.98 4.34 -2 4 C-2 3.01 -2 2.02 -2 1 C-1.34 0.67 -0.68 0.34 0 0 Z " fill="#FFDF2B" transform="translate(304,103)"/>
<path d="M0 0 C1.32 0.33 2.64 0.66 4 1 C3.67 1.99 3.34 2.98 3 4 C2.01 4 1.02 4 0 4 C0 2.68 0 1.36 0 0 Z " fill="#FFDF2B" transform="translate(312,102)"/>
<path d="M0 0 C1.32 0.33 2.64 0.66 4 1 C3.67 1.99 3.34 2.98 3 4 C2.01 4 1.02 4 0 4 C0 2.68 0 1.36 0 0 Z " fill="#FFDF2B" transform="translate(305,88)"/>
<path d="M0 0 C1.32 0.33 2.64 0.66 4 1 C3.67 1.99 3.34 2.98 3 4 C2.01 3.67 1.02 3.34 0 3 C0 2.01 0 1.02 0 0 Z " fill="#FFDF2B" transform="translate(313,93)"/>
</svg>
